<?xml version='1.0' encoding='UTF-8'?>
<svg width="49mm" height="49mm" version="1.1" viewBox="0 0 49 49" xmlns="http://www.w3.org/2000/svg"><path d="M4,4H5V5H4zM5,4H6V5H5zM6,4H7V5H6zM7,4H8V5H7zM8,4H9V5H8zM9,4H10V5H9zM10,4H11V5H10zM12,4H13V5H12zM13,4H14V5H13zM14,4H15V5H14zM15,4H16V5H15zM19,4H20V5H19zM20,4H21V5H20zM21,4H22V5H21zM22,4H23V5H22zM28,4H29V5H28zM30,4H31V5H30zM31,4H32V5H31zM33,4H34V5H33zM34,4H35V5H34zM35,4H36V5H35zM38,4H39V5H38zM39,4H40V5H39zM40,4H41V5H40zM41,4H42V5H41zM42,4H43V5H42zM43,4H44V5H43zM44,4H45V5H44zM4,5H5V6H4zM10,5H11V6H10zM15,5H16V6H15zM16,5H17V6H16zM18,5H19V6H18zM20,5H21V6H20zM21,5H22V6H21zM23,5H24V6H23zM26,5H27V6H26zM28,5H29V6H28zM29,5H30V6H29zM31,5H32V6H31zM32,5H33V6H32zM34,5H35V6H34zM35,5H36V6H35zM38,5H39V6H38zM44,5H45V6H44zM4,6H5V7H4zM6,6H7V7H6zM7,6H8V7H7zM8,6H9V7H8zM10,6H11V7H10zM13,6H14V7H13zM16,6H17V7H16zM18,6H19V7H18zM19,6H20V7H19zM20,6H21V7H20zM21,6H22V7H21zM22,6H23V7H22zM26,6H27V7H26zM31,6H32V7H31zM33,6H34V7H33zM34,6H35V7H34zM35,6H36V7H35zM38,6H39V7H38zM40,6H41V7H40zM41,6H42V7H41zM42,6H43V7H42zM44,6H45V7H44zM4,7H5V8H4zM6,7H7V8H6zM7,7H8V8H7zM8,7H9V8H8zM10,7H11V8H10zM12,7H13V8H12zM13,7H14V8H13zM14,7H15V8H14zM16,7H17V8H16zM19,7H20V8H19zM20,7H21V8H20zM21,7H22V8H21zM22,7H23V8H22zM24,7H25V8H24zM25,7H26V8H25zM26,7H27V8H26zM29,7H30V8H29zM33,7H34V8H33zM34,7H35V8H34zM38,7H39V8H38zM40,7H41V8H40zM41,7H42V8H41zM42,7H43V8H42zM44,7H45V8H44zM4,8H5V9H4zM6,8H7V9H6zM7,8H8V9H7zM8,8H9V9H8zM10,8H11V9H10zM13,8H14V9H13zM14,8H15V9H14zM15,8H16V9H15zM16,8H17V9H16zM18,8H19V9H18zM20,8H21V9H20zM21,8H22V9H21zM22,8H23V9H22zM23,8H24V9H23zM26,8H27V9H26zM27,8H28V9H27zM28,8H29V9H28zM31,8H32V9H31zM33,8H34V9H33zM34,8H35V9H34zM35,8H36V9H35zM38,8H39V9H38zM40,8H41V9H40zM41,8H42V9H41zM42,8H43V9H42zM44,8H45V9H44zM4,9H5V10H4zM10,9H11V10H10zM17,9H18V10H17zM18,9H19V10H18zM21,9H22V10H21zM23,9H24V10H23zM24,9H25V10H24zM26,9H27V10H26zM27,9H28V10H27zM29,9H30V10H29zM31,9H32V10H31zM33,9H34V10H33zM35,9H36V10H35zM38,9H39V10H38zM44,9H45V10H44zM4,10H5V11H4zM5,10H6V11H5zM6,10H7V11H6zM7,10H8V11H7zM8,10H9V11H8zM9,10H10V11H9zM10,10H11V11H10zM12,10H13V11H12zM14,10H15V11H14zM16,10H17V11H16zM18,10H19V11H18zM20,10H21V11H20zM22,10H23V11H22zM24,10H25V11H24zM26,10H27V11H26zM28,10H29V11H28zM30,10H31V11H30zM32,10H33V11H32zM34,10H35V11H34zM36,10H37V11H36zM38,10H39V11H38zM39,10H40V11H39zM40,10H41V11H40zM41,10H42V11H41zM42,10H43V11H42zM43,10H44V11H43zM44,10H45V11H44zM14,11H15V12H14zM19,11H20V12H19zM22,11H23V12H22zM23,11H24V12H23zM24,11H25V12H24zM25,11H26V12H25zM29,11H30V12H29zM31,11H32V12H31zM32,11H33V12H32zM33,11H34V12H33zM35,11H36V12H35zM36,11H37V12H36zM6,12H7V13H6zM8,12H9V13H8zM9,12H10V13H9zM10,12H11V13H10zM12,12H13V13H12zM13,12H14V13H13zM15,12H16V13H15zM16,12H17V13H16zM17,12H18V13H17zM19,12H20V13H19zM21,12H22V13H21zM23,12H24V13H23zM25,12H26V13H25zM27,12H28V13H27zM30,12H31V13H30zM32,12H33V13H32zM33,12H34V13H33zM35,12H36V13H35zM37,12H38V13H37zM41,12H42V13H41zM44,12H45V13H44zM7,13H8V14H7zM8,13H9V14H8zM9,13H10V14H9zM12,13H13V14H12zM13,13H14V14H13zM17,13H18V14H17zM18,13H19V14H18zM19,13H20V14H19zM23,13H24V14H23zM24,13H25V14H24zM26,13H27V14H26zM28,13H29V14H28zM30,13H31V14H30zM32,13H33V14H32zM33,13H34V14H33zM36,13H37V14H36zM37,13H38V14H37zM38,13H39V14H38zM41,13H42V14H41zM42,13H43V14H42zM44,13H45V14H44zM4,14H5V15H4zM6,14H7V15H6zM7,14H8V15H7zM10,14H11V15H10zM13,14H14V15H13zM14,14H15V15H14zM15,14H16V15H15zM16,14H17V15H16zM17,14H18V15H17zM18,14H19V15H18zM19,14H20V15H19zM21,14H22V15H21zM23,14H24V15H23zM25,14H26V15H25zM26,14H27V15H26zM32,14H33V15H32zM34,14H35V15H34zM38,14H39V15H38zM40,14H41V15H40zM42,14H43V15H42zM44,14H45V15H44zM4,15H5V16H4zM9,15H10V16H9zM11,15H12V16H11zM14,15H15V16H14zM15,15H16V16H15zM19,15H20V16H19zM20,15H21V16H20zM21,15H22V16H21zM22,15H23V16H22zM23,15H24V16H23zM26,15H27V16H26zM27,15H28V16H27zM28,15H29V16H28zM30,15H31V16H30zM31,15H32V16H31zM33,15H34V16H33zM34,15H35V16H34zM36,15H37V16H36zM37,15H38V16H37zM40,15H41V16H40zM43,15H44V16H43zM4,16H5V17H4zM5,16H6V17H5zM6,16H7V17H6zM7,16H8V17H7zM8,16H9V17H8zM9,16H10V17H9zM10,16H11V17H10zM11,16H12V17H11zM13,16H14V17H13zM14,16H15V17H14zM15,16H16V17H15zM16,16H17V17H16zM17,16H18V17H17zM21,16H22V17H21zM23,16H24V17H23zM25,16H26V17H25zM28,16H29V17H28zM29,16H30V17H29zM32,16H33V17H32zM33,16H34V17H33zM35,16H36V17H35zM38,16H39V17H38zM41,16H42V17H41zM43,16H44V17H43zM44,16H45V17H44zM4,17H5V18H4zM5,17H6V18H5zM8,17H9V18H8zM9,17H10V18H9zM12,17H13V18H12zM13,17H14V18H13zM14,17H15V18H14zM15,17H16V18H15zM28,17H29V18H28zM29,17H30V18H29zM30,17H31V18H30zM31,17H32V18H31zM32,17H33V18H32zM35,17H36V18H35zM38,17H39V18H38zM41,17H42V18H41zM42,17H43V18H42zM43,17H44V18H43zM44,17H45V18H44zM4,18H5V19H4zM5,18H6V19H5zM9,18H10V19H9zM10,18H11V19H10zM11,18H12V19H11zM13,18H14V19H13zM15,18H16V19H15zM16,18H17V19H16zM17,18H18V19H17zM18,18H19V19H18zM20,18H21V19H20zM21,18H22V19H21zM22,18H23V19H22zM23,18H24V19H23zM24,18H25V19H24zM26,18H27V19H26zM28,18H29V19H28zM30,18H31V19H30zM31,18H32V19H31zM32,18H33V19H32zM34,18H35V19H34zM38,18H39V19H38zM39,18H40V19H39zM40,18H41V19H40zM42,18H43V19H42zM43,18H44V19H43zM44,18H45V19H44zM4,19H5V20H4zM8,19H9V20H8zM9,19H10V20H9zM12,19H13V20H12zM13,19H14V20H13zM14,19H15V20H14zM16,19H17V20H16zM20,19H21V20H20zM24,19H25V20H24zM26,19H27V20H26zM27,19H28V20H27zM32,19H33V20H32zM33,19H34V20H33zM35,19H36V20H35zM38,19H39V20H38zM39,19H40V20H39zM40,19H41V20H40zM44,19H45V20H44zM4,20H5V21H4zM7,20H8V21H7zM8,20H9V21H8zM10,20H11V21H10zM11,20H12V21H11zM13,20H14V21H13zM18,20H19V21H18zM20,20H21V21H20zM22,20H23V21H22zM23,20H24V21H23zM24,20H25V21H24zM26,20H27V21H26zM28,20H29V21H28zM29,20H30V21H29zM31,20H32V21H31zM33,20H34V21H33zM36,20H37V21H36zM38,20H39V21H38zM39,20H40V21H39zM43,20H44V21H43zM4,21H5V22H4zM7,21H8V22H7zM16,21H17V22H16zM17,21H18V22H17zM18,21H19V22H18zM19,21H20V22H19zM20,21H21V22H20zM21,21H22V22H21zM23,21H24V22H23zM25,21H26V22H25zM26,21H27V22H26zM27,21H28V22H27zM28,21H29V22H28zM29,21H30V22H29zM33,21H34V22H33zM34,21H35V22H34zM38,21H39V22H38zM42,21H43V22H42zM43,21H44V22H43zM44,21H45V22H44zM4,22H5V23H4zM5,22H6V23H5zM6,22H7V23H6zM8,22H9V23H8zM9,22H10V23H9zM10,22H11V23H10zM11,22H12V23H11zM12,22H13V23H12zM13,22H14V23H13zM15,22H16V23H15zM17,22H18V23H17zM18,22H19V23H18zM19,22H20V23H19zM20,22H21V23H20zM21,22H22V23H21zM26,22H27V23H26zM29,22H30V23H29zM32,22H33V23H32zM34,22H35V23H34zM36,22H37V23H36zM37,22H38V23H37zM40,22H41V23H40zM43,22H44V23H43zM44,22H45V23H44zM4,23H5V24H4zM6,23H7V24H6zM8,23H9V24H8zM12,23H13V24H12zM14,23H15V24H14zM19,23H20V24H19zM22,23H23V24H22zM23,23H24V24H23zM24,23H25V24H24zM25,23H26V24H25zM26,23H27V24H26zM31,23H32V24H31zM32,23H33V24H32zM33,23H34V24H33zM34,23H35V24H34zM35,23H36V24H35zM36,23H37V24H36zM37,23H38V24H37zM38,23H39V24H38zM39,23H40V24H39zM41,23H42V24H41zM43,23H44V24H43zM6,24H7V25H6zM9,24H10V25H9zM10,24H11V25H10zM14,24H15V25H14zM15,24H16V25H15zM18,24H19V25H18zM19,24H20V25H19zM21,24H22V25H21zM23,24H24V25H23zM24,24H25V25H24zM25,24H26V25H25zM28,24H29V25H28zM29,24H30V25H29zM30,24H31V25H30zM31,24H32V25H31zM34,24H35V25H34zM36,24H37V25H36zM38,24H39V25H38zM39,24H40V25H39zM43,24H44V25H43zM44,24H45V25H44zM4,25H5V26H4zM7,25H8V26H7zM8,25H9V26H8zM11,25H12V26H11zM14,25H15V26H14zM15,25H16V26H15zM16,25H17V26H16zM19,25H20V26H19zM20,25H21V26H20zM21,25H22V26H21zM22,25H23V26H22zM23,25H24V26H23zM25,25H26V26H25zM27,25H28V26H27zM28,25H29V26H28zM29,25H30V26H29zM32,25H33V26H32zM34,25H35V26H34zM36,25H37V26H36zM37,25H38V26H37zM38,25H39V26H38zM39,25H40V26H39zM42,25H43V26H42zM43,25H44V26H43zM44,25H45V26H44zM7,26H8V27H7zM8,26H9V27H8zM10,26H11V27H10zM11,26H12V27H11zM12,26H13V27H12zM14,26H15V27H14zM15,26H16V27H15zM17,26H18V27H17zM20,26H21V27H20zM22,26H23V27H22zM23,26H24V27H23zM24,26H25V27H24zM25,26H26V27H25zM30,26H31V27H30zM33,26H34V27H33zM36,26H37V27H36zM38,26H39V27H38zM39,26H40V27H39zM41,26H42V27H41zM42,26H43V27H42zM43,26H44V27H43zM44,26H45V27H44zM5,27H6V28H5zM7,27H8V28H7zM8,27H9V28H8zM9,27H10V28H9zM13,27H14V28H13zM14,27H15V28H14zM15,27H16V28H15zM16,27H17V28H16zM17,27H18V28H17zM20,27H21V28H20zM21,27H22V28H21zM22,27H23V28H22zM24,27H25V28H24zM29,27H30V28H29zM30,27H31V28H30zM31,27H32V28H31zM33,27H34V28H33zM34,27H35V28H34zM35,27H36V28H35zM43,27H44V28H43zM44,27H45V28H44zM4,28H5V29H4zM5,28H6V29H5zM6,28H7V29H6zM8,28H9V29H8zM10,28H11V29H10zM17,28H18V29H17zM18,28H19V29H18zM22,28H23V29H22zM25,28H26V29H25zM26,28H27V29H26zM28,28H29V29H28zM29,28H30V29H29zM33,28H34V29H33zM36,28H37V29H36zM37,28H38V29H37zM38,28H39V29H38zM41,28H42V29H41zM42,28H43V29H42zM44,28H45V29H44zM4,29H5V30H4zM5,29H6V30H5zM6,29H7V30H6zM12,29H13V30H12zM13,29H14V30H13zM14,29H15V30H14zM15,29H16V30H15zM16,29H17V30H16zM17,29H18V30H17zM18,29H19V30H18zM21,29H22V30H21zM25,29H26V30H25zM26,29H27V30H26zM29,29H30V30H29zM32,29H33V30H32zM37,29H38V30H37zM38,29H39V30H38zM43,29H44V30H43zM44,29H45V30H44zM4,30H5V31H4zM6,30H7V31H6zM7,30H8V31H7zM8,30H9V31H8zM9,30H10V31H9zM10,30H11V31H10zM11,30H12V31H11zM13,30H14V31H13zM15,30H16V31H15zM16,30H17V31H16zM18,30H19V31H18zM19,30H20V31H19zM21,30H22V31H21zM22,30H23V31H22zM27,30H28V31H27zM30,30H31V31H30zM33,30H34V31H33zM37,30H38V31H37zM38,30H39V31H38zM40,30H41V31H40zM42,30H43V31H42zM43,30H44V31H43zM44,30H45V31H44zM6,31H7V32H6zM8,31H9V32H8zM11,31H12V32H11zM16,31H17V32H16zM20,31H21V32H20zM26,31H27V32H26zM27,31H28V32H27zM29,31H30V32H29zM30,31H31V32H30zM32,31H33V32H32zM33,31H34V32H33zM36,31H37V32H36zM39,31H40V32H39zM4,32H5V33H4zM5,32H6V33H5zM6,32H7V33H6zM8,32H9V33H8zM10,32H11V33H10zM13,32H14V33H13zM14,32H15V33H14zM15,32H16V33H15zM17,32H18V33H17zM18,32H19V33H18zM20,32H21V33H20zM21,32H22V33H21zM22,32H23V33H22zM24,32H25V33H24zM27,32H28V33H27zM28,32H29V33H28zM30,32H31V33H30zM31,32H32V33H31zM33,32H34V33H33zM35,32H36V33H35zM36,32H37V33H36zM38,32H39V33H38zM41,32H42V33H41zM5,33H6V34H5zM6,33H7V34H6zM8,33H9V34H8zM14,33H15V34H14zM16,33H17V34H16zM19,33H20V34H19zM20,33H21V34H20zM21,33H22V34H21zM22,33H23V34H22zM25,33H26V34H25zM28,33H29V34H28zM29,33H30V34H29zM30,33H31V34H30zM31,33H32V34H31zM33,33H34V34H33zM34,33H35V34H34zM35,33H36V34H35zM36,33H37V34H36zM37,33H38V34H37zM41,33H42V34H41zM42,33H43V34H42zM43,33H44V34H43zM44,33H45V34H44zM4,34H5V35H4zM6,34H7V35H6zM7,34H8V35H7zM8,34H9V35H8zM9,34H10V35H9zM10,34H11V35H10zM15,34H16V35H15zM17,34H18V35H17zM20,34H21V35H20zM28,34H29V35H28zM30,34H31V35H30zM35,34H36V35H35zM36,34H37V35H36zM41,34H42V35H41zM42,34H43V35H42zM43,34H44V35H43zM44,34H45V35H44zM5,35H6V36H5zM7,35H8V36H7zM8,35H9V36H8zM9,35H10V36H9zM13,35H14V36H13zM15,35H16V36H15zM17,35H18V36H17zM18,35H19V36H18zM20,35H21V36H20zM23,35H24V36H23zM26,35H27V36H26zM30,35H31V36H30zM31,35H32V36H31zM33,35H34V36H33zM36,35H37V36H36zM37,35H38V36H37zM38,35H39V36H38zM40,35H41V36H40zM41,35H42V36H41zM4,36H5V37H4zM6,36H7V37H6zM8,36H9V37H8zM9,36H10V37H9zM10,36H11V37H10zM12,36H13V37H12zM14,36H15V37H14zM15,36H16V37H15zM22,36H23V37H22zM23,36H24V37H23zM24,36H25V37H24zM25,36H26V37H25zM27,36H28V37H27zM28,36H29V37H28zM30,36H31V37H30zM32,36H33V37H32zM33,36H34V37H33zM35,36H36V37H35zM36,36H37V37H36zM37,36H38V37H37zM38,36H39V37H38zM39,36H40V37H39zM40,36H41V37H40zM12,37H13V38H12zM13,37H14V38H13zM14,37H15V38H14zM19,37H20V38H19zM22,37H23V38H22zM23,37H24V38H23zM25,37H26V38H25zM28,37H29V38H28zM29,37H30V38H29zM32,37H33V38H32zM36,37H37V38H36zM40,37H41V38H40zM42,37H43V38H42zM44,37H45V38H44zM4,38H5V39H4zM5,38H6V39H5zM6,38H7V39H6zM7,38H8V39H7zM8,38H9V39H8zM9,38H10V39H9zM10,38H11V39H10zM14,38H15V39H14zM15,38H16V39H15zM17,38H18V39H17zM19,38H20V39H19zM20,38H21V39H20zM22,38H23V39H22zM23,38H24V39H23zM29,38H30V39H29zM30,38H31V39H30zM33,38H34V39H33zM35,38H36V39H35zM36,38H37V39H36zM38,38H39V39H38zM40,38H41V39H40zM41,38H42V39H41zM43,38H44V39H43zM44,38H45V39H44zM4,39H5V40H4zM10,39H11V40H10zM12,39H13V40H12zM13,39H14V40H13zM14,39H15V40H14zM17,39H18V40H17zM18,39H19V40H18zM19,39H20V40H19zM24,39H25V40H24zM25,39H26V40H25zM26,39H27V40H26zM29,39H30V40H29zM30,39H31V40H30zM31,39H32V40H31zM32,39H33V40H32zM36,39H37V40H36zM40,39H41V40H40zM4,40H5V41H4zM6,40H7V41H6zM7,40H8V41H7zM8,40H9V41H8zM10,40H11V41H10zM12,40H13V41H12zM14,40H15V41H14zM17,40H18V41H17zM18,40H19V41H18zM19,40H20V41H19zM20,40H21V41H20zM23,40H24V41H23zM27,40H28V41H27zM29,40H30V41H29zM31,40H32V41H31zM32,40H33V41H32zM36,40H37V41H36zM37,40H38V41H37zM38,40H39V41H38zM39,40H40V41H39zM40,40H41V41H40zM41,40H42V41H41zM44,40H45V41H44zM4,41H5V42H4zM6,41H7V42H6zM7,41H8V42H7zM8,41H9V42H8zM10,41H11V42H10zM13,41H14V42H13zM15,41H16V42H15zM17,41H18V42H17zM18,41H19V42H18zM22,41H23V42H22zM24,41H25V42H24zM26,41H27V42H26zM28,41H29V42H28zM32,41H33V42H32zM35,41H36V42H35zM36,41H37V42H36zM37,41H38V42H37zM40,41H41V42H40zM41,41H42V42H41zM42,41H43V42H42zM44,41H45V42H44zM4,42H5V43H4zM6,42H7V43H6zM7,42H8V43H7zM8,42H9V43H8zM10,42H11V43H10zM12,42H13V43H12zM14,42H15V43H14zM17,42H18V43H17zM20,42H21V43H20zM24,42H25V43H24zM26,42H27V43H26zM30,42H31V43H30zM32,42H33V43H32zM34,42H35V43H34zM35,42H36V43H35zM39,42H40V43H39zM40,42H41V43H40zM44,42H45V43H44zM4,43H5V44H4zM10,43H11V44H10zM15,43H16V44H15zM19,43H20V44H19zM24,43H25V44H24zM26,43H27V44H26zM27,43H28V44H27zM28,43H29V44H28zM29,43H30V44H29zM31,43H32V44H31zM32,43H33V44H32zM33,43H34V44H33zM36,43H37V44H36zM38,43H39V44H38zM39,43H40V44H39zM43,43H44V44H43zM4,44H5V45H4zM5,44H6V45H5zM6,44H7V45H6zM7,44H8V45H7zM8,44H9V45H8zM9,44H10V45H9zM10,44H11V45H10zM14,44H15V45H14zM15,44H16V45H15zM16,44H17V45H16zM17,44H18V45H17zM19,44H20V45H19zM20,44H21V45H20zM23,44H24V45H23zM24,44H25V45H24zM26,44H27V45H26zM27,44H28V45H27zM28,44H29V45H28zM29,44H30V45H29zM32,44H33V45H32zM33,44H34V45H33zM35,44H36V45H35zM36,44H37V45H36zM37,44H38V45H37zM39,44H40V45H39zM40,44H41V45H40zM42,44H43V45H42zM43,44H44V45H43zM44,44H45V45H44z" id="qr-path" fill="#000000" fill-opacity="1" fill-rule="nonzero" stroke="none"/></svg>